# Blender v2.72 (sub 0) OBJ File: ''
# www.blender.org
mtllib Pillars.mtl
o Cylinder.003
v -0.000000 0.000000 -6.250000
v -0.000000 -2.000000 -6.250000
v -0.048773 0.000000 -6.245196
v -0.048773 -2.000000 -6.245196
v -0.095671 0.000000 -6.230970
v -0.095671 -2.000000 -6.230970
v -0.138893 0.000000 -6.207868
v -0.138893 -2.000000 -6.207868
v -0.176777 0.000000 -6.176777
v -0.176777 -2.000000 -6.176777
v -0.207867 0.000000 -6.138893
v -0.207867 -2.000000 -6.138893
v -0.230970 0.000000 -6.095671
v -0.230970 -2.000000 -6.095671
v -0.245196 0.000000 -6.048773
v -0.245196 -2.000000 -6.048773
v -0.250000 0.000000 -6.000000
v -0.250000 -2.000000 -6.000000
v -0.245196 0.000000 -5.951228
v -0.245196 -2.000000 -5.951228
v -0.230970 0.000000 -5.904329
v -0.230970 -2.000000 -5.904329
v -0.207867 0.000000 -5.861107
v -0.207867 -2.000000 -5.861107
v -0.176777 0.000000 -5.823224
v -0.176777 -2.000000 -5.823224
v -0.138893 0.000000 -5.792133
v -0.138893 -2.000000 -5.792133
v -0.095671 0.000000 -5.769030
v -0.095671 -2.000000 -5.769030
v -0.048773 0.000000 -5.754804
v -0.048773 -2.000000 -5.754804
v 0.000000 0.000000 -5.750000
v 0.000000 -2.000000 -5.750000
v 0.048773 0.000000 -5.754804
v 0.048773 -2.000000 -5.754804
v 0.095671 0.000000 -5.769030
v 0.095671 -2.000000 -5.769030
v 0.138893 0.000000 -5.792133
v 0.138893 -2.000000 -5.792133
v 0.176777 0.000000 -5.823224
v 0.176777 -2.000000 -5.823224
v 0.207867 0.000000 -5.861108
v 0.207867 -2.000000 -5.861108
v 0.230970 0.000000 -5.904329
v 0.230970 -2.000000 -5.904329
v 0.245196 0.000000 -5.951228
v 0.245196 -2.000000 -5.951228
v 0.250000 0.000000 -6.000000
v 0.250000 -2.000000 -6.000000
v 0.245196 0.000000 -6.048773
v 0.245196 -2.000000 -6.048773
v 0.230970 0.000000 -6.095671
v 0.230970 -2.000000 -6.095671
v 0.207867 0.000000 -6.138893
v 0.207867 -2.000000 -6.138893
v 0.176776 0.000000 -6.176777
v 0.176776 -2.000000 -6.176777
v 0.138892 0.000000 -6.207868
v 0.138892 -2.000000 -6.207868
v 0.095671 0.000000 -6.230970
v 0.095671 -2.000000 -6.230970
v 0.048772 0.000000 -6.245196
v 0.048772 -2.000000 -6.245196
v -0.176777 0.000000 -5.823224
v -0.176777 -2.000000 -5.823224
v -0.000000 0.000000 5.750000
v -0.000000 -2.000000 5.750000
v -0.048773 0.000000 5.754804
v -0.048773 -2.000000 5.754804
v -0.095671 0.000000 5.769030
v -0.095671 -2.000000 5.769030
v -0.138893 0.000000 5.792132
v -0.138893 -2.000000 5.792132
v -0.176777 0.000000 5.823223
v -0.176777 -2.000000 5.823223
v -0.207867 0.000000 5.861108
v -0.207867 -2.000000 5.861108
v -0.230970 0.000000 5.904329
v -0.230970 -2.000000 5.904329
v -0.245196 0.000000 5.951227
v -0.245196 -2.000000 5.951227
v -0.250000 0.000000 6.000000
v -0.250000 -2.000000 6.000000
v -0.245196 0.000000 6.048773
v -0.245196 -2.000000 6.048773
v -0.230970 0.000000 6.095671
v -0.230970 -2.000000 6.095671
v -0.207867 0.000000 6.138892
v -0.207867 -2.000000 6.138892
v -0.176777 0.000000 6.176777
v -0.176777 -2.000000 6.176777
v -0.138893 0.000000 6.207868
v -0.138893 -2.000000 6.207868
v -0.095671 0.000000 6.230969
v -0.095671 -2.000000 6.230969
v -0.048773 0.000000 6.245196
v -0.048773 -2.000000 6.245196
v 0.000000 0.000000 6.250000
v 0.000000 -2.000000 6.250000
v 0.048773 0.000000 6.245196
v 0.048773 -2.000000 6.245196
v 0.095671 0.000000 6.230969
v 0.095671 -2.000000 6.230969
v 0.138893 0.000000 6.207868
v 0.138893 -2.000000 6.207868
v 0.176777 0.000000 6.176777
v 0.176777 -2.000000 6.176777
v 0.207867 0.000000 6.138892
v 0.207867 -2.000000 6.138892
v 0.230970 0.000000 6.095671
v 0.230970 -2.000000 6.095671
v 0.245196 0.000000 6.048772
v 0.245196 -2.000000 6.048772
v 0.250000 0.000000 6.000000
v 0.250000 -2.000000 6.000000
v 0.245196 0.000000 5.951227
v 0.245196 -2.000000 5.951227
v 0.230970 0.000000 5.904328
v 0.230970 -2.000000 5.904328
v 0.207867 0.000000 5.861107
v 0.207867 -2.000000 5.861107
v 0.176776 0.000000 5.823223
v 0.176776 -2.000000 5.823223
v 0.138892 0.000000 5.792132
v 0.138892 -2.000000 5.792132
v 0.095671 0.000000 5.769030
v 0.095671 -2.000000 5.769030
v 0.048772 0.000000 5.754804
v 0.048772 -2.000000 5.754804
v -0.176777 0.000000 6.176777
v -0.176777 -2.000000 6.176777
v -0.000000 0.000000 1.750000
v -0.000000 -2.000000 1.750000
v -0.048773 0.000000 1.754804
v -0.048773 -2.000000 1.754804
v -0.095671 0.000000 1.769030
v -0.095671 -2.000000 1.769030
v -0.138893 0.000000 1.792132
v -0.138893 -2.000000 1.792132
v -0.176777 0.000000 1.823223
v -0.176777 -2.000000 1.823223
v -0.207867 0.000000 1.861107
v -0.207867 -2.000000 1.861107
v -0.230970 0.000000 1.904329
v -0.230970 -2.000000 1.904329
v -0.245196 0.000000 1.951227
v -0.245196 -2.000000 1.951227
v -0.250000 0.000000 2.000000
v -0.250000 -2.000000 2.000000
v -0.245196 0.000000 2.048773
v -0.245196 -2.000000 2.048773
v -0.230970 0.000000 2.095671
v -0.230970 -2.000000 2.095671
v -0.207867 0.000000 2.138892
v -0.207867 -2.000000 2.138892
v -0.176777 0.000000 2.176777
v -0.176777 -2.000000 2.176777
v -0.138893 0.000000 2.207868
v -0.138893 -2.000000 2.207868
v -0.095671 0.000000 2.230969
v -0.095671 -2.000000 2.230969
v -0.048773 0.000000 2.245196
v -0.048773 -2.000000 2.245196
v 0.000000 0.000000 2.250000
v 0.000000 -2.000000 2.250000
v 0.048773 0.000000 2.245196
v 0.048773 -2.000000 2.245196
v 0.095671 0.000000 2.230969
v 0.095671 -2.000000 2.230969
v 0.138893 0.000000 2.207868
v 0.138893 -2.000000 2.207868
v 0.176777 0.000000 2.176777
v 0.176777 -2.000000 2.176777
v 0.207867 0.000000 2.138892
v 0.207867 -2.000000 2.138892
v 0.230970 0.000000 2.095671
v 0.230970 -2.000000 2.095671
v 0.245196 0.000000 2.048772
v 0.245196 -2.000000 2.048772
v 0.250000 0.000000 2.000000
v 0.250000 -2.000000 2.000000
v 0.245196 0.000000 1.951227
v 0.245196 -2.000000 1.951227
v 0.230970 0.000000 1.904329
v 0.230970 -2.000000 1.904329
v 0.207867 0.000000 1.861107
v 0.207867 -2.000000 1.861107
v 0.176776 0.000000 1.823223
v 0.176776 -2.000000 1.823223
v 0.138892 0.000000 1.792132
v 0.138892 -2.000000 1.792132
v 0.095671 0.000000 1.769030
v 0.095671 -2.000000 1.769030
v 0.048772 0.000000 1.754804
v 0.048772 -2.000000 1.754804
v -0.176777 0.000000 2.176777
v -0.176777 -2.000000 2.176777
v -0.000000 0.000000 -2.250000
v -0.000000 -2.000000 -2.250000
v -0.048773 0.000000 -2.245196
v -0.048773 -2.000000 -2.245196
v -0.095671 0.000000 -2.230970
v -0.095671 -2.000000 -2.230970
v -0.138893 0.000000 -2.207867
v -0.138893 -2.000000 -2.207867
v -0.176777 0.000000 -2.176777
v -0.176777 -2.000000 -2.176777
v -0.207867 0.000000 -2.138893
v -0.207867 -2.000000 -2.138893
v -0.230970 0.000000 -2.095671
v -0.230970 -2.000000 -2.095671
v -0.245196 0.000000 -2.048773
v -0.245196 -2.000000 -2.048773
v -0.250000 0.000000 -2.000000
v -0.250000 -2.000000 -2.000000
v -0.245196 0.000000 -1.951228
v -0.245196 -2.000000 -1.951228
v -0.230970 0.000000 -1.904329
v -0.230970 -2.000000 -1.904329
v -0.207867 0.000000 -1.861107
v -0.207867 -2.000000 -1.861107
v -0.176777 0.000000 -1.823224
v -0.176777 -2.000000 -1.823224
v -0.138893 0.000000 -1.792133
v -0.138893 -2.000000 -1.792133
v -0.095671 0.000000 -1.769030
v -0.095671 -2.000000 -1.769030
v -0.048773 0.000000 -1.754804
v -0.048773 -2.000000 -1.754804
v 0.000000 0.000000 -1.750000
v 0.000000 -2.000000 -1.750000
v 0.048773 0.000000 -1.754804
v 0.048773 -2.000000 -1.754804
v 0.095671 0.000000 -1.769030
v 0.095671 -2.000000 -1.769030
v 0.138893 0.000000 -1.792133
v 0.138893 -2.000000 -1.792133
v 0.176777 0.000000 -1.823224
v 0.176777 -2.000000 -1.823224
v 0.207867 0.000000 -1.861108
v 0.207867 -2.000000 -1.861108
v 0.230970 0.000000 -1.904329
v 0.230970 -2.000000 -1.904329
v 0.245196 0.000000 -1.951228
v 0.245196 -2.000000 -1.951228
v 0.250000 0.000000 -2.000000
v 0.250000 -2.000000 -2.000000
v 0.245196 0.000000 -2.048773
v 0.245196 -2.000000 -2.048773
v 0.230970 0.000000 -2.095671
v 0.230970 -2.000000 -2.095671
v 0.207867 0.000000 -2.138893
v 0.207867 -2.000000 -2.138893
v 0.176776 0.000000 -2.176777
v 0.176776 -2.000000 -2.176777
v 0.138892 0.000000 -2.207868
v 0.138892 -2.000000 -2.207868
v 0.095671 0.000000 -2.230970
v 0.095671 -2.000000 -2.230970
v 0.048772 0.000000 -2.245197
v 0.048772 -2.000000 -2.245197
v -0.176777 0.000000 -1.823224
v -0.176777 -2.000000 -1.823224
vt 1.144475 0.625976
vt 1.144475 0.657340
vt -0.135462 0.657335
vt 1.144475 0.688704
vt -0.135462 0.688697
vt 1.144475 0.720068
vt -0.135462 0.720059
vt 1.144474 0.751432
vt -0.135462 0.751420
vt 1.144474 0.782796
vt -0.135463 0.782782
vt 1.144473 0.814160
vt -0.135463 0.814143
vt 1.144473 0.845524
vt -0.135463 0.845505
vt 1.144472 0.876888
vt -0.135464 0.876866
vt 1.144472 0.908252
vt -0.135464 0.908228
vt 1.144471 0.939616
vt -0.135465 0.939590
vt 1.144470 0.970980
vt -0.135466 0.970951
vt 1.144470 1.002344
vt -0.135466 1.002313
vt 1.144465 -0.001303
vt 1.144466 0.030060
vt -0.135473 0.030104
vt 1.144467 0.061424
vt -0.135472 0.061465
vt 1.144468 0.092788
vt -0.135471 0.092827
vt 1.144469 0.124153
vt -0.135469 0.124188
vt 1.144470 0.155516
vt -0.135469 0.155550
vt 1.144470 0.186880
vt -0.135468 0.186912
vt 1.144471 0.218245
vt -0.135467 0.218273
vt 1.144472 0.249609
vt -0.135466 0.249635
vt 1.144472 0.280972
vt -0.135466 0.280997
vt 1.144473 0.312336
vt -0.135465 0.312358
vt 1.144473 0.343701
vt -0.135464 0.343720
vt 1.144474 0.375064
vt -0.135464 0.375081
vt 1.144474 0.406428
vt -0.135463 0.406443
vt 1.144475 0.437792
vt -0.135463 0.437804
vt 1.144475 0.469156
vt -0.135463 0.469166
vt 1.144475 0.500520
vt -0.135463 0.500528
vt 1.144475 0.531884
vt -0.135462 0.531889
vt 1.144475 0.563248
vt -0.135462 0.563251
vt -0.094365 -0.090793
vt 0.954096 -0.182520
vt 1.170393 0.970470
vt -0.135462 0.594612
vt 1.144475 0.594612
vt 1.248608 0.827904
vt -0.329537 0.655066
vt -0.198892 0.033775
vt -0.135462 0.625974
vt 0.939049 1.196821
vt -0.107166 1.082240
vt -0.135474 -0.001258
vt 0.476701 1.331582
vt 0.315055 1.313879
vt 1.255535 0.193065
vt 1.301038 0.349180
vt 1.180448 0.048825
vt 0.032453 -0.192575
vt 0.176691 -0.267660
vt 0.332807 -0.313164
vt 0.811531 -0.260734
vt 0.656444 -0.309633
vt 0.494800 -0.327336
vt 0.794810 1.271907
vt 0.638694 1.317410
vt -0.277106 0.176341
vt -0.326005 0.331428
vt -0.284033 0.811182
vt -0.343709 0.493072
vt -0.208948 0.955420
vt 0.159969 1.264980
vt 0.017403 1.186765
vt 1.315210 0.511175
vt 1.297506 0.672819
vt 1.078665 -0.077995
vt 1.065868 1.095038
vn -0.098000 0.000000 -0.995200
vn -0.290300 0.000000 -0.956900
vn -0.471400 0.000000 -0.881900
vn -0.634400 0.000000 -0.773000
vn -0.773000 0.000000 -0.634400
vn -0.881900 0.000000 -0.471400
vn -0.956900 0.000000 -0.290300
vn -0.995200 0.000000 -0.098000
vn -0.995200 0.000000 0.098000
vn -0.956900 0.000000 0.290300
vn -0.881900 0.000000 0.471400
vn -0.773000 0.000000 0.634400
vn -0.634400 0.000000 0.773000
vn -0.471400 0.000000 0.881900
vn -0.290300 0.000000 0.956900
vn -0.098000 0.000000 0.995200
vn 0.098000 0.000000 0.995200
vn 0.290300 0.000000 0.956900
vn 0.471400 0.000000 0.881900
vn 0.634400 0.000000 0.773000
vn 0.773000 0.000000 0.634400
vn 0.881900 0.000000 0.471400
vn 0.956900 0.000000 0.290300
vn 0.995200 0.000000 0.098000
vn 0.995200 0.000000 -0.098000
vn 0.956900 0.000000 -0.290300
vn 0.881900 0.000000 -0.471400
vn 0.773000 0.000000 -0.634400
vn 0.634400 0.000000 -0.773000
vn 0.471400 0.000000 -0.881900
vn 0.000000 -1.000000 0.000000
vn 0.098000 0.000000 -0.995200
vn 0.290300 0.000000 -0.956900
usemtl None
s off
f 2/1/1 4/2/1 3/3/1
f 4/2/2 6/4/2 5/5/2
f 6/4/3 8/6/3 7/7/3
f 8/6/4 10/8/4 9/9/4
f 10/8/5 12/10/5 11/11/5
f 12/10/6 14/12/6 13/13/6
f 14/12/7 16/14/7 15/15/7
f 16/14/8 18/16/8 17/17/8
f 18/16/9 20/18/9 19/19/9
f 20/18/10 22/20/10 21/21/10
f 22/20/11 24/22/11 23/23/11
f 24/22/12 26/24/12 25/25/12
f 26/26/13 28/27/13 27/28/13
f 28/27/14 30/29/14 29/30/14
f 30/29/15 32/31/15 31/32/15
f 32/31/16 34/33/16 33/34/16
f 34/33/17 36/35/17 35/36/17
f 36/35/18 38/37/18 37/38/18
f 38/37/19 40/39/19 39/40/19
f 40/39/20 42/41/20 41/42/20
f 42/41/21 44/43/21 43/44/21
f 44/43/22 46/45/22 45/46/22
f 46/45/23 48/47/23 47/48/23
f 48/47/24 50/49/24 49/50/24
f 50/49/25 52/51/25 51/52/25
f 52/51/26 54/53/26 53/54/26
f 54/53/27 56/55/27 55/56/27
f 56/55/28 58/57/28 57/58/28
f 58/57/29 60/59/29 59/60/29
f 60/59/30 62/61/30 61/62/30
f 28/63/31 14/64/31 62/65/31
f 63/66/32 64/67/32 2/1/32
f 62/61/33 64/67/33 63/66/33
f 68/1/1 70/2/1 69/3/1
f 70/2/2 72/4/2 71/5/2
f 72/4/3 74/6/3 73/7/3
f 74/6/4 76/8/4 75/9/4
f 76/8/5 78/10/5 77/11/5
f 78/10/6 80/12/6 79/13/6
f 80/12/7 82/14/7 81/15/7
f 82/14/8 84/16/8 83/17/8
f 84/16/9 86/18/9 85/19/9
f 86/18/10 88/20/10 87/21/10
f 88/20/11 90/22/11 89/23/11
f 90/22/12 92/24/12 91/25/12
f 92/26/13 94/27/13 93/28/13
f 94/27/14 96/29/14 95/30/14
f 96/29/15 98/31/15 97/32/15
f 98/31/16 100/33/16 99/34/16
f 100/33/17 102/35/17 101/36/17
f 102/35/18 104/37/18 103/38/18
f 104/37/19 106/39/19 105/40/19
f 106/39/20 108/41/20 107/42/20
f 108/41/21 110/43/21 109/44/21
f 110/43/22 112/45/22 111/46/22
f 112/45/23 114/47/23 113/48/23
f 114/47/24 116/49/24 115/50/24
f 116/49/25 118/51/25 117/52/25
f 118/51/26 120/53/26 119/54/26
f 120/53/27 122/55/27 121/56/27
f 122/55/28 124/57/28 123/58/28
f 124/57/29 126/59/29 125/60/29
f 126/59/30 128/61/30 127/62/30
f 130/68/31 104/69/31 96/70/31
f 130/67/32 68/1/32 67/71/32
f 128/61/33 130/67/33 129/66/33
f 134/1/1 136/2/1 135/3/1
f 136/2/2 138/4/2 137/5/2
f 138/4/3 140/6/3 139/7/3
f 140/6/4 142/8/4 141/9/4
f 142/8/5 144/10/5 143/11/5
f 144/10/6 146/12/6 145/13/6
f 145/13/7 146/12/7 148/14/7
f 148/14/8 150/16/8 149/17/8
f 149/17/9 150/16/9 152/18/9
f 151/19/10 152/18/10 154/20/10
f 154/20/11 156/22/11 155/23/11
f 156/22/12 158/24/12 157/25/12
f 158/26/13 160/27/13 159/28/13
f 160/27/14 162/29/14 161/30/14
f 162/29/15 164/31/15 163/32/15
f 164/31/16 166/33/16 165/34/16
f 166/33/17 168/35/17 167/36/17
f 168/35/18 170/37/18 169/38/18
f 170/37/19 172/39/19 171/40/19
f 172/39/20 174/41/20 173/42/20
f 174/41/21 176/43/21 175/44/21
f 176/43/22 178/45/22 177/46/22
f 178/45/23 180/47/23 179/48/23
f 180/47/24 182/49/24 181/50/24
f 181/50/25 182/49/25 184/51/25
f 184/51/26 186/53/26 185/54/26
f 186/53/27 188/55/27 187/56/27
f 188/55/28 190/57/28 189/58/28
f 190/57/29 192/59/29 191/60/29
f 192/59/30 194/61/30 193/62/30
f 194/65/31 170/69/31 162/70/31
f 195/66/32 196/67/32 134/1/32
f 194/61/33 196/67/33 195/66/33
f 200/1/1 202/2/1 201/3/1
f 202/2/2 204/4/2 203/5/2
f 204/4/3 206/6/3 205/7/3
f 206/6/4 208/8/4 207/9/4
f 208/8/5 210/10/5 209/11/5
f 210/10/6 212/12/6 211/13/6
f 212/12/7 214/14/7 213/15/7
f 213/15/8 214/14/8 216/16/8
f 216/16/9 218/18/9 217/19/9
f 218/18/10 220/20/10 219/21/10
f 220/20/11 222/22/11 221/23/11
f 222/22/12 224/24/12 223/25/12
f 224/26/13 226/27/13 225/28/13
f 226/27/14 228/29/14 227/30/14
f 228/29/15 230/31/15 229/32/15
f 230/31/16 232/33/16 231/34/16
f 232/33/17 234/35/17 233/36/17
f 234/35/18 236/37/18 235/38/18
f 236/37/19 238/39/19 237/40/19
f 238/39/20 240/41/20 239/42/20
f 240/41/21 242/43/21 241/44/21
f 242/43/22 244/45/22 243/46/22
f 244/45/23 246/47/23 245/48/23
f 245/48/24 246/47/24 248/49/24
f 248/49/25 250/51/25 249/52/25
f 250/51/26 252/53/26 251/54/26
f 252/53/27 254/55/27 253/56/27
f 254/55/28 256/57/28 255/58/28
f 256/57/29 258/59/29 257/60/29
f 258/59/30 260/61/30 259/62/30
f 226/63/31 256/72/31 242/73/31
f 261/66/32 262/67/32 200/1/32
f 260/61/33 262/67/33 261/66/33
f 1/71/1 2/1/1 3/3/1
f 3/3/2 4/2/2 5/5/2
f 5/5/3 6/4/3 7/7/3
f 7/7/4 8/6/4 9/9/4
f 9/9/5 10/8/5 11/11/5
f 11/11/6 12/10/6 13/13/6
f 13/13/7 14/12/7 15/15/7
f 15/15/8 16/14/8 17/17/8
f 17/17/9 18/16/9 19/19/9
f 19/19/10 20/18/10 21/21/10
f 21/21/11 22/20/11 23/23/11
f 23/23/12 24/22/12 25/25/12
f 25/74/13 26/26/13 27/28/13
f 27/28/14 28/27/14 29/30/14
f 29/30/15 30/29/15 31/32/15
f 31/32/16 32/31/16 33/34/16
f 33/34/17 34/33/17 35/36/17
f 35/36/18 36/35/18 37/38/18
f 37/38/19 38/37/19 39/40/19
f 39/40/20 40/39/20 41/42/20
f 41/42/21 42/41/21 43/44/21
f 43/44/22 44/43/22 45/46/22
f 45/46/23 46/45/23 47/48/23
f 47/48/24 48/47/24 49/50/24
f 49/50/25 50/49/25 51/52/25
f 51/52/26 52/51/26 53/54/26
f 53/54/27 54/53/27 55/56/27
f 55/56/28 56/55/28 57/58/28
f 57/58/29 58/57/29 59/60/29
f 59/60/30 60/59/30 61/62/30
f 44/73/31 52/75/31 50/76/31
f 8/77/31 6/78/31 10/79/31
f 26/80/31 24/81/31 22/82/31
f 16/83/31 14/64/31 18/84/31
f 20/85/31 26/80/31 22/82/31
f 58/72/31 56/86/31 54/87/31
f 32/88/31 30/70/31 28/63/31
f 32/88/31 28/63/31 34/89/31
f 40/90/31 38/69/31 36/91/31
f 44/73/31 42/92/31 40/90/31
f 48/93/31 46/94/31 44/73/31
f 48/93/31 44/73/31 50/76/31
f 52/75/31 58/72/31 54/87/31
f 14/64/31 20/85/31 18/84/31
f 6/78/31 4/95/31 14/64/31
f 4/95/31 2/96/31 64/68/31
f 1/71/32 63/66/32 2/1/32
f 12/97/31 6/78/31 14/64/31
f 52/75/31 62/65/31 58/72/31
f 6/78/31 12/97/31 10/79/31
f 36/91/31 34/89/31 40/90/31
f 61/62/33 62/61/33 63/66/33
f 28/63/31 62/65/31 40/90/31
f 62/65/31 60/98/31 58/72/31
f 14/64/31 4/95/31 62/65/31
f 62/65/31 52/75/31 44/73/31
f 14/64/31 28/63/31 26/80/31
f 62/65/31 44/73/31 40/90/31
f 4/95/31 64/68/31 62/65/31
f 20/85/31 14/64/31 26/80/31
f 34/89/31 28/63/31 40/90/31
f 67/71/1 68/1/1 69/3/1
f 69/3/2 70/2/2 71/5/2
f 71/5/3 72/4/3 73/7/3
f 73/7/4 74/6/4 75/9/4
f 75/9/5 76/8/5 77/11/5
f 77/11/6 78/10/6 79/13/6
f 79/13/7 80/12/7 81/15/7
f 81/15/8 82/14/8 83/17/8
f 83/17/9 84/16/9 85/19/9
f 85/19/10 86/18/10 87/21/10
f 87/21/11 88/20/11 89/23/11
f 89/23/12 90/22/12 91/25/12
f 91/74/13 92/26/13 93/28/13
f 93/28/14 94/27/14 95/30/14
f 95/30/15 96/29/15 97/32/15
f 97/32/16 98/31/16 99/34/16
f 99/34/17 100/33/17 101/36/17
f 101/36/18 102/35/18 103/38/18
f 103/38/19 104/37/19 105/40/19
f 105/40/20 106/39/20 107/42/20
f 107/42/21 108/41/21 109/44/21
f 109/44/22 110/43/22 111/46/22
f 111/46/23 112/45/23 113/48/23
f 113/48/24 114/47/24 115/50/24
f 115/50/25 116/49/25 117/52/25
f 117/52/26 118/51/26 119/54/26
f 119/54/27 120/53/27 121/56/27
f 121/56/28 122/55/28 123/58/28
f 123/58/29 124/57/29 125/60/29
f 125/60/30 126/59/30 127/62/30
f 74/77/31 72/78/31 70/95/31
f 78/97/31 76/79/31 74/77/31
f 78/97/31 84/84/31 80/64/31
f 127/62/33 128/61/33 129/66/33
f 86/85/31 84/84/31 88/82/31
f 90/81/31 96/70/31 92/80/31
f 102/91/31 100/89/31 104/69/31
f 98/88/31 96/70/31 100/89/31
f 124/72/31 118/75/31 114/93/31
f 106/90/31 104/69/31 108/92/31
f 114/93/31 112/94/31 110/73/31
f 118/75/31 116/76/31 114/93/31
f 122/86/31 120/87/31 118/75/31
f 122/86/31 118/75/31 124/72/31
f 130/68/31 128/65/31 126/98/31
f 70/95/31 68/96/31 130/68/31
f 78/97/31 74/77/31 70/95/31
f 84/84/31 78/97/31 90/81/31
f 84/84/31 82/83/31 80/64/31
f 96/70/31 94/63/31 92/80/31
f 100/89/31 96/70/31 104/69/31
f 110/73/31 104/69/31 114/93/31
f 78/97/31 96/70/31 90/81/31
f 78/97/31 130/68/31 96/70/31
f 129/66/32 130/67/32 67/71/32
f 104/69/31 110/73/31 108/92/31
f 130/68/31 126/98/31 124/72/31
f 130/68/31 124/72/31 104/69/31
f 78/97/31 70/95/31 130/68/31
f 84/84/31 90/81/31 88/82/31
f 104/69/31 124/72/31 114/93/31
f 133/71/1 134/1/1 135/3/1
f 135/3/2 136/2/2 137/5/2
f 137/5/3 138/4/3 139/7/3
f 139/7/4 140/6/4 141/9/4
f 141/9/5 142/8/5 143/11/5
f 143/11/6 144/10/6 145/13/6
f 147/15/7 145/13/7 148/14/7
f 147/15/8 148/14/8 149/17/8
f 151/19/9 149/17/9 152/18/9
f 153/21/10 151/19/10 154/20/10
f 153/21/11 154/20/11 155/23/11
f 155/23/12 156/22/12 157/25/12
f 157/74/13 158/26/13 159/28/13
f 159/28/14 160/27/14 161/30/14
f 161/30/15 162/29/15 163/32/15
f 163/32/16 164/31/16 165/34/16
f 165/34/17 166/33/17 167/36/17
f 167/36/18 168/35/18 169/38/18
f 169/38/19 170/37/19 171/40/19
f 171/40/20 172/39/20 173/42/20
f 173/42/21 174/41/21 175/44/21
f 175/44/22 176/43/22 177/46/22
f 177/46/23 178/45/23 179/48/23
f 179/48/24 180/47/24 181/50/24
f 183/52/25 181/50/25 184/51/25
f 183/52/26 184/51/26 185/54/26
f 185/54/27 186/53/27 187/56/27
f 187/56/28 188/55/28 189/58/28
f 189/58/29 190/57/29 191/60/29
f 191/60/30 192/59/30 193/62/30
f 150/84/31 156/81/31 154/82/31
f 140/77/31 138/78/31 142/79/31
f 136/95/31 194/65/31 146/64/31
f 148/83/31 146/64/31 150/84/31
f 152/85/31 150/84/31 154/82/31
f 156/81/31 162/70/31 158/80/31
f 194/65/31 162/70/31 146/64/31
f 164/88/31 162/70/31 166/89/31
f 184/75/31 180/93/31 190/72/31
f 172/90/31 170/69/31 174/92/31
f 180/93/31 178/94/31 176/73/31
f 184/75/31 182/76/31 180/93/31
f 184/75/31 190/72/31 186/87/31
f 150/84/31 146/64/31 156/81/31
f 193/62/33 194/61/33 195/66/33
f 136/95/31 134/96/31 196/68/31
f 162/70/31 160/63/31 158/80/31
f 144/97/31 138/78/31 146/64/31
f 180/93/31 194/65/31 190/72/31
f 168/91/31 166/89/31 170/69/31
f 166/89/31 162/70/31 170/69/31
f 176/73/31 170/69/31 180/93/31
f 190/72/31 188/86/31 186/87/31
f 133/71/32 195/66/32 134/1/32
f 146/64/31 162/70/31 156/81/31
f 170/69/31 176/73/31 174/92/31
f 180/93/31 170/69/31 194/65/31
f 194/65/31 192/98/31 190/72/31
f 138/78/31 136/95/31 146/64/31
f 138/78/31 144/97/31 142/79/31
f 136/95/31 196/68/31 194/65/31
f 199/71/1 200/1/1 201/3/1
f 201/3/2 202/2/2 203/5/2
f 203/5/3 204/4/3 205/7/3
f 205/7/4 206/6/4 207/9/4
f 207/9/5 208/8/5 209/11/5
f 209/11/6 210/10/6 211/13/6
f 211/13/7 212/12/7 213/15/7
f 215/17/8 213/15/8 216/16/8
f 215/17/9 216/16/9 217/19/9
f 217/19/10 218/18/10 219/21/10
f 219/21/11 220/20/11 221/23/11
f 221/23/12 222/22/12 223/25/12
f 223/74/13 224/26/13 225/28/13
f 225/28/14 226/27/14 227/30/14
f 227/30/15 228/29/15 229/32/15
f 229/32/16 230/31/16 231/34/16
f 231/34/17 232/33/17 233/36/17
f 233/36/18 234/35/18 235/38/18
f 235/38/19 236/37/19 237/40/19
f 237/40/20 238/39/20 239/42/20
f 239/42/21 240/41/21 241/44/21
f 241/44/22 242/43/22 243/46/22
f 243/46/23 244/45/23 245/48/23
f 247/50/24 245/48/24 248/49/24
f 247/50/25 248/49/25 249/52/25
f 249/52/26 250/51/26 251/54/26
f 251/54/27 252/53/27 253/56/27
f 253/56/28 254/55/28 255/58/28
f 255/58/29 256/57/29 257/60/29
f 257/60/30 258/59/30 259/62/30
f 206/77/31 204/78/31 202/95/31
f 210/97/31 208/79/31 206/77/31
f 210/97/31 206/77/31 212/64/31
f 214/83/31 224/80/31 216/84/31
f 218/85/31 224/80/31 220/82/31
f 232/89/31 226/63/31 238/90/31
f 230/88/31 228/70/31 226/63/31
f 230/88/31 226/63/31 232/89/31
f 238/90/31 236/69/31 234/91/31
f 242/73/31 240/92/31 238/90/31
f 246/93/31 244/94/31 242/73/31
f 246/93/31 242/73/31 248/76/31
f 250/75/31 256/72/31 252/87/31
f 206/77/31 214/83/31 212/64/31
f 258/98/31 200/96/31 260/65/31
f 256/72/31 226/63/31 200/96/31
f 206/77/31 202/95/31 200/96/31
f 224/80/31 218/85/31 216/84/31
f 226/63/31 242/73/31 238/90/31
f 206/77/31 224/80/31 214/83/31
f 234/91/31 232/89/31 238/90/31
f 256/72/31 254/86/31 252/87/31
f 200/96/31 262/68/31 260/65/31
f 224/80/31 222/81/31 220/82/31
f 256/72/31 250/75/31 242/73/31
f 224/80/31 206/77/31 226/63/31
f 258/98/31 256/72/31 200/96/31
f 259/62/33 260/61/33 261/66/33
f 226/63/31 206/77/31 200/96/31
f 242/73/31 250/75/31 248/76/31
f 199/71/32 261/66/32 200/1/32
l 66 65
l 132 131
l 198 197
l 264 263
