# Blender v2.72 (sub 0) OBJ File: ''
# www.blender.org
mtllib Wall.mtl
o Plane.001
v 1.000000 -2.778700 8.000000
v 1.000000 0.000000 8.000000
v 1.000000 -2.778700 -8.000000
v 1.000000 0.000000 -8.000000
v 1.238165 -1.000000 8.000000
v 1.238165 -1.000000 -8.000000
vt 3.432128 0.135174
vt -2.401426 0.135174
vt -2.401426 0.499771
vt 3.432128 0.499771
vt -2.401426 1.148280
vt 3.432128 1.148280
vn -0.972800 -0.231700 0.000000
vn -0.991200 0.132700 0.000000
usemtl None
s off
f 2/1/1 4/2/1 6/3/1
f 5/4/2 6/3/2 3/5/2
f 5/4/1 2/1/1 6/3/1
f 1/6/2 5/4/2 3/5/2
